<svg xmlns="http://www.w3.org/2000/svg">
    <symbol id="search" viewBox="0 0 50 50">
        <g id="surface1">
            <path style=" " d="M 21 3 C 11.601563 3 4 10.601563 4 20 C 4 29.398438 11.601563 37 21 37 C 24.355469 37 27.460938 36.015625 30.09375 34.34375 L 42.375 46.625 L 46.625 42.375 L 34.5 30.28125 C 36.679688 27.421875 38 23.878906 38 20 C 38 10.601563 30.398438 3 21 3 Z M 21 7 C 28.199219 7 34 12.800781 34 20 C 34 27.199219 28.199219 33 21 33 C 13.800781 33 8 27.199219 8 20 C 8 12.800781 13.800781 7 21 7 Z "/>
        </g>
    </symbol>
    <symbol id="upload" viewBox="0 0 32.634 32.634">
        <path d="M16.317,32.634c-0.276,0-0.5-0.224-0.5-0.5V0.5c0-0.276,0.224-0.5,0.5-0.5s0.5,0.224,0.5,0.5v31.634
		C16.817,32.41,16.594,32.634,16.317,32.634z"/>
	    <path d="M28.852,13.536c-0.128,0-0.256-0.049-0.354-0.146L16.319,1.207L4.135,13.39c-0.195,0.195-0.512,0.195-0.707,0
		s-0.195-0.512,0-0.707L15.966,0.146C16.059,0.053,16.186,0,16.319,0l0,0c0.133,0,0.26,0.053,0.354,0.146l12.533,12.536
		c0.195,0.195,0.195,0.512,0,0.707C29.108,13.487,28.98,13.536,28.852,13.536z"/>
    </symbol>
    <symbol id="up_arrow" viewBox="0 0 35.414 35.414">
        <g>
		    <polygon points="35.414,25.536 18.414,8.39 17,8.39 0,25.536 1.414,27.024 17.707,10.767 34,27.005 		"/>
	    </g>
    </symbol>
    <symbol id="remove" viewBox="0 0 27.507 27.507">
        <g>
		    <polygon points="25.994,0 13.748,12.339 1.408,0.092 0.001,1.512 12.34,13.758 0.092,26.098 1.512,27.507 13.759,15.168 
			26.098,27.415 27.507,25.995 15.168,13.749 27.415,1.409 		"/>
	    </g>
    </symbol>
    <symbol id="down_arrow" viewBox="0 0 35.414 35.414">
        <g>
		    <polygon points="34,8.354 17.707,24.646 1.414,8.354 0,9.915 17,27.061 18.414,27.061 35.414,9.915 		"/>
	    </g>
    </symbol>
    <symbol id="navl_2" viewBox="0 0 26 30">
        <g>
		    <path d="M0.65 22.21C0.65 21.91 0.87 21.65 1.16 21.59L1.16 22.82C0.87 22.77 0.65 22.51 0.65 22.21ZM0.65 18.23C0.65 17.93 0.87 17.67 1.16 17.62L1.16 18.85C0.87 18.79 0.65 18.53 0.65 18.23ZM0.65 14.23C0.65 13.93 0.87 13.67 1.16 13.62L1.16 14.85C0.87 14.79 0.65 14.53 0.65 14.23ZM0.65 10.14C0.65 9.84 0.87 9.58 1.16 9.52L1.16 10.75C0.87 10.7 0.65 10.44 0.65 10.14ZM0.65 6.14C0.65 5.84 0.87 5.58 1.16 5.52L1.16 6.76C0.87 6.7 0.65 6.44 0.65 6.14ZM3.3 23.49L4.23 23.49C4.24 23.54 4.27 23.58 4.29 23.63C4.29 23.65 4.3 23.67 4.31 23.69C4.35 23.77 4.4 23.83 4.46 23.9C4.67 24.17 4.98 24.35 5.34 24.35C5.97 24.35 6.48 23.84 6.48 23.21C6.48 22.58 5.97 22.07 5.34 22.07C4.85 22.07 4.44 22.39 4.28 22.83C4.28 22.83 4.28 22.83 4.28 22.84L3.3 22.84L3.3 19.51L4.23 19.51C4.28 19.7 4.38 19.86 4.52 19.99C4.53 20 4.54 20.02 4.55 20.03C4.59 20.06 4.64 20.09 4.68 20.11C4.87 20.25 5.09 20.35 5.34 20.35C5.97 20.35 6.48 19.84 6.48 19.21C6.48 18.58 5.97 18.07 5.34 18.07C4.84 18.07 4.43 18.4 4.28 18.86L3.3 18.86L3.3 15.52L4.25 15.52C4.26 15.53 4.27 15.53 4.28 15.55C4.43 15.99 4.85 16.31 5.34 16.31C5.97 16.31 6.48 15.8 6.48 15.17C6.48 14.54 5.97 14.03 5.34 14.03C4.84 14.03 4.43 14.36 4.28 14.81C4.27 14.83 4.25 14.84 4.24 14.86L3.3 14.86L3.3 11.42L4.23 11.42C4.24 11.44 4.25 11.46 4.26 11.48C4.38 11.98 4.81 12.35 5.34 12.35C5.97 12.35 6.48 11.84 6.48 11.21C6.48 10.58 5.97 10.08 5.34 10.08C5.1 10.08 4.89 10.17 4.71 10.29C4.67 10.32 4.63 10.34 4.59 10.38C4.52 10.43 4.48 10.5 4.43 10.57C4.38 10.64 4.3 10.69 4.27 10.77L3.3 10.77L3.3 7.42L4.2 7.42C4.21 7.46 4.23 7.49 4.24 7.53C4.31 8.08 4.77 8.51 5.34 8.51C5.97 8.51 6.48 8 6.48 7.37C6.48 6.74 5.97 6.23 5.34 6.23C5.13 6.23 4.94 6.3 4.78 6.41C4.72 6.43 4.67 6.47 4.62 6.51C4.57 6.55 4.53 6.59 4.49 6.63C4.45 6.68 4.38 6.71 4.35 6.77L3.3 6.77L3.3 3.06C3.3 2.74 3.56 2.49 3.87 2.49L23.34 2.49C23.65 2.49 23.9 2.74 23.9 3.06L23.9 27.29C23.9 27.6 23.65 27.86 23.34 27.86L3.87 27.86C3.56 27.86 3.3 27.6 3.3 27.29L3.3 23.49ZM23.34 0.35L3.87 0.35C2.38 0.35 1.16 1.56 1.16 3.06L1.16 4.87C0.51 4.93 0 5.48 0 6.14C0 6.81 0.51 7.35 1.16 7.41L1.16 8.87C0.51 8.93 0 9.47 0 10.14C0 10.81 0.51 11.35 1.16 11.41L1.16 12.96C0.51 13.02 0 13.57 0 14.23C0 14.9 0.51 15.44 1.16 15.5L1.16 16.96C0.51 17.02 0 17.57 0 18.23C0 18.9 0.51 19.44 1.16 19.5L1.16 20.94C0.51 21 0 21.54 0 22.21C0 22.87 0.51 23.42 1.16 23.48L1.16 27.29C1.16 28.78 2.38 30 3.87 30L23.34 30C24.83 30 26.05 28.78 26.05 27.29L26.05 3.06C26.05 1.56 24.83 0.35 23.34 0.35ZM19.06 8.47L19.27 8.26L19.27 7.81L19.06 7.61L17.78 7.61C18.57 6.84 19.17 6.18 19.17 5.36C19.17 4.68 18.73 3.99 17.74 3.99C17.27 3.99 16.82 4.15 16.48 4.45L16.42 4.69L16.59 5.07L16.92 5.15C17.07 5.01 17.33 4.86 17.63 4.86C18.02 4.86 18.21 5.04 18.21 5.43C18.21 5.94 17.79 6.42 16.79 7.37L16.3 7.93L16.3 8.26L16.51 8.47L19.06 8.47ZM20.68 8.54C21.83 8.54 22.35 7.81 22.35 7.13C22.35 6.67 22.12 6.29 21.73 6.07C22.03 5.84 22.19 5.53 22.19 5.15C22.19 4.58 21.77 3.99 20.84 3.99C20.33 3.99 19.89 4.18 19.67 4.34L19.6 4.58L19.74 4.97L20.06 5.07C20.21 4.97 20.47 4.84 20.74 4.84C21.06 4.84 21.23 4.98 21.23 5.24C21.23 5.58 20.82 5.71 20.55 5.71L20.25 5.71L20.04 5.92L20.04 6.32L20.25 6.53L20.55 6.53C20.68 6.53 21.36 6.56 21.37 7.12C21.37 7.19 21.36 7.37 21.23 7.5C21.11 7.62 20.92 7.69 20.68 7.69C20.36 7.69 20.04 7.55 19.91 7.47L19.59 7.57L19.45 7.99L19.53 8.23C19.74 8.37 20.17 8.54 20.68 8.54ZM10.06 11.97L19.77 11.97C20.16 11.97 20.47 11.66 20.47 11.27C20.47 10.88 20.16 10.57 19.77 10.57L10.06 10.57C9.67 10.57 9.36 10.88 9.36 11.27C9.36 11.66 9.67 11.97 10.06 11.97ZM10.06 16.01L19.77 16.01C20.16 16.01 20.47 15.69 20.47 15.31C20.47 14.92 20.16 14.61 19.77 14.61L10.06 14.61C9.67 14.61 9.36 14.92 9.36 15.31C9.36 15.69 9.67 16.01 10.06 16.01ZM10.06 19.94L19.77 19.94C20.16 19.94 20.47 19.62 20.47 19.24C20.47 18.85 20.16 18.54 19.77 18.54L10.06 18.54C9.67 18.54 9.36 18.85 9.36 19.24C9.36 19.62 9.67 19.94 10.06 19.94ZM10.06 24.11L19.77 24.11C20.16 24.11 20.47 23.8 20.47 23.41C20.47 23.03 20.16 22.71 19.77 22.71L10.06 22.71C9.67 22.71 9.36 23.03 9.36 23.41C9.36 23.8 9.67 24.11 10.06 24.11Z" />
	    </g>
    </symbol>
    <symbol id="navl_1" viewBox="0 0 25 30">
        <g>
		    <path d="M2.14 17.48L15.34 17.48L15.34 27.86L2.71 27.86C2.4 27.86 2.14 27.6 2.14 27.29L2.14 17.48ZM9.46 16.09L2.14 16.09L2.14 13.75L10.76 13.75L9.46 16.09ZM22.75 12.35L16.4 12.35L16.4 2.49L22.18 2.49C22.49 2.49 22.75 2.74 22.75 3.06L22.75 12.35ZM2.14 3.06C2.14 2.74 2.4 2.49 2.71 2.49L15.34 2.49L15.34 12.35L2.14 12.35L2.14 3.06ZM22.75 27.29C22.75 27.6 22.49 27.86 22.18 27.86L16.4 27.86L16.4 17.48L22.75 17.48L22.75 27.29ZM22.18 0.35L2.71 0.35C1.22 0.35 0 1.56 0 3.06L0 27.29C0 28.78 1.22 30 2.71 30L22.18 30C23.67 30 24.89 28.78 24.89 27.29L24.89 3.06C24.89 1.56 23.67 0.35 22.18 0.35Z" />
	    </g>
    </symbol>
    <symbol id="navl_3" viewBox="0 0 28 28">
        <g>
		    <path d="M10.74 5.27C10.04 5.27 9.4 5.91 9.4 6.61C9.4 7.32 10.04 7.96 10.74 7.96C11.44 7.96 12.09 7.32 12.09 6.61C12.09 5.91 11.44 5.27 10.74 5.27ZM10.74 9.41C9.22 9.41 7.94 8.13 7.94 6.61C7.94 5.09 9.22 3.81 10.74 3.81C12.26 3.81 13.54 5.09 13.54 6.61C13.54 8.13 12.26 9.41 10.74 9.41ZM17.66 5.27C16.95 5.27 16.32 5.91 16.32 6.61C16.32 7.32 16.95 7.96 17.66 7.96C18.36 7.96 19 7.32 19 6.61C19 5.91 18.36 5.27 17.66 5.27ZM17.66 9.41C16.14 9.41 14.86 8.13 14.86 6.61C14.86 5.09 16.14 3.81 17.66 3.81C19.18 3.81 20.46 5.09 20.46 6.61C20.46 8.13 19.18 9.41 17.66 9.41ZM6.6 10.8C5.89 10.8 5.25 11.44 5.25 12.14C5.25 12.85 5.89 13.49 6.6 13.49C7.3 13.49 7.94 12.85 7.94 12.14C7.94 11.44 7.3 10.8 6.6 10.8ZM6.6 14.95C5.08 14.95 3.79 13.66 3.79 12.14C3.79 10.62 5.08 9.34 6.6 9.34C8.12 9.34 9.4 10.62 9.4 12.14C9.4 13.66 8.12 14.95 6.6 14.95ZM21.81 10.8C21.1 10.8 20.46 11.44 20.46 12.14C20.46 12.85 21.1 13.49 21.81 13.49C22.52 13.49 23.15 12.85 23.15 12.14C23.15 11.44 22.52 10.8 21.81 10.8ZM21.81 14.95C20.29 14.95 19 13.66 19 12.14C19 10.62 20.29 9.34 21.81 9.34C23.33 9.34 24.62 10.62 24.62 12.14C24.62 13.66 23.33 14.95 21.81 14.95ZM14.2 1.68C7.52 1.68 2.08 7.12 2.08 13.8C2.08 20.48 7.52 25.92 14.2 25.92C14.79 25.92 15.35 25.36 15.35 24.77C15.35 24.41 15.29 24.26 15.07 24.04L14.94 23.87C14.59 23.35 14.19 22.73 14.19 21.85C14.19 20.09 15.67 18.6 17.42 18.6L20.05 18.6C23.56 18.6 26.32 15.85 26.32 12.34C26.32 6.46 20.88 1.68 14.2 1.68ZM14.2 28C6.37 28 0 21.63 0 13.8C0 5.97 6.37 -0.4 14.2 -0.4C22.03 -0.4 28.4 5.31 28.4 12.34C28.4 17.02 24.73 20.69 20.05 20.69L17.42 20.69C16.83 20.69 16.27 21.25 16.27 21.85C16.27 22.1 16.41 22.32 16.66 22.7C17.16 23.18 17.43 23.86 17.43 24.77C17.43 26.52 15.95 28 14.2 28Z" />
	    </g>
    </symbol>
    <symbol id="navl_4" viewBox="0 0 25 30">
        <g>
		    <path d="M2.14 3.06C2.14 2.75 2.4 2.49 2.71 2.49L9.36 2.49L9.39 2.61C9.45 2.85 9.66 3.01 9.9 3.01C9.95 3.01 9.99 3 10.04 2.99C10.27 2.93 10.39 2.72 10.4 2.49L22.18 2.49C22.49 2.49 22.75 2.75 22.75 3.06L22.75 10.16L22.33 10.35C22.06 10.47 21.94 10.78 22.06 11.05C22.12 11.19 22.23 11.26 22.35 11.31L19.87 12.42C19.9 12.29 19.91 12.16 19.85 12.04C19.73 11.77 19.41 11.65 19.15 11.77L16.82 12.81C16.55 12.93 16.43 13.25 16.55 13.52C16.61 13.64 16.7 13.72 16.81 13.77L14.79 14.66C14.82 14.55 14.82 14.43 14.77 14.32C14.65 14.05 14.34 13.93 14.07 14.05L13.49 14.3C13.49 14.3 13.49 14.29 13.49 14.29L12.99 12.36C12.92 12.07 12.63 11.9 12.34 11.97C12.06 12.04 11.89 12.33 11.96 12.62L12.46 14.55C12.49 14.67 12.56 14.77 12.65 14.84C12.59 14.97 12.59 15.13 12.65 15.27L12.96 16.46C12.96 16.47 12.95 16.48 12.95 16.48L13.45 18.41C13.45 18.42 13.46 18.42 13.46 18.43L13.95 20.33C13.95 20.34 13.95 20.34 13.95 20.34L14.44 22.27C14.44 22.28 14.45 22.28 14.45 22.28L14.94 24.2C14.94 24.2 14.94 24.2 14.94 24.2L15.44 26.14C15.44 26.14 15.44 26.14 15.44 26.14L15.85 27.75L15.85 27.75L15.88 27.86L2.71 27.86C2.4 27.86 2.14 27.6 2.14 27.29L2.14 3.06ZM22.18 0.35L2.71 0.35C1.22 0.35 0 1.56 0 3.06L0 27.29C0 28.79 1.22 30 2.71 30L22.18 30C23.67 30 24.89 28.79 24.89 27.29L24.89 3.06C24.89 1.56 23.67 0.35 22.18 0.35ZM10.97 8.76L11.46 10.69C11.53 10.93 11.74 11.09 11.98 11.09C12.02 11.09 12.07 11.08 12.11 11.07C12.4 11 12.57 10.71 12.5 10.42L12 8.49C11.93 8.21 11.64 8.04 11.35 8.11C11.06 8.18 10.89 8.47 10.97 8.76ZM10.99 7.23C11.03 7.23 11.07 7.22 11.12 7.21C11.4 7.14 11.58 6.85 11.5 6.56L11.01 4.63C10.93 4.35 10.64 4.17 10.36 4.25C10.07 4.32 9.9 4.61 9.97 4.9L10.47 6.83C10.53 7.07 10.75 7.23 10.99 7.23Z" />
	    </g>
    </symbol>
    <symbol id="navl_5" viewBox="0 0 26 24">
        <g>
		    <path id="Path 1" class="shp0" d="M17.21 17.55C18.39 17.55 19.36 16.58 19.36 15.39C19.36 14.21 18.39 13.24 17.21 13.24C16.03 13.24 15.06 14.21 15.06 15.39C15.06 16.58 16.03 17.55 17.21 17.55ZM23.67 21.85L5.38 21.85C3.55 21.85 2.15 20.45 2.15 18.62L2.15 8.29C2.8 8.73 3.55 8.94 4.3 8.94L23.67 8.94L23.67 21.85ZM4.3 6.79C3.12 6.79 2.15 5.82 2.15 4.64C2.15 3.45 3.12 2.49 4.3 2.49L21.51 2.49L21.51 4.64L23.67 4.64L23.67 0.33L4.3 0.33C1.94 0.33 0 2.27 0 4.64L0 18.62C0 21.63 2.37 24 5.38 24L25.82 24L25.82 6.79L4.3 6.79Z" />
	    </g>
    </symbol>
    <symbol id="navl_6" viewBox="0 0 26 29">
        <g>
		    <path id="Path 1" class="shp0" d="M23.49 19.42L15.16 19.42C14.77 19.42 14.45 19.1 14.45 18.7L14.45 17.19C14.45 16.79 14.77 16.47 15.16 16.47L23.49 16.47C23.88 16.47 24.2 16.79 24.2 17.19L24.2 18.7C24.2 19.1 23.88 19.42 23.49 19.42ZM23.49 23.12L15.16 23.12C14.77 23.12 14.45 22.8 14.45 22.41L14.45 20.89C14.45 20.5 14.77 20.18 15.16 20.18L23.49 20.18C23.88 20.18 24.2 20.5 24.2 20.89L24.2 22.41C24.2 22.8 23.88 23.12 23.49 23.12ZM23.49 26.83L15.16 26.83C14.77 26.83 14.45 26.5 14.45 26.11L14.45 24.6C14.45 24.2 14.77 23.88 15.16 23.88L23.49 23.88C23.88 23.88 24.2 24.2 24.2 24.6L24.2 26.11C24.2 26.5 23.88 26.83 23.49 26.83ZM24.16 4.21L24.16 13.27C24.16 14.25 23.36 15.05 22.37 15.05L3.94 15.05C2.96 15.05 2.15 14.25 2.15 13.27L2.15 4.21C2.15 3.22 2.96 2.42 3.94 2.42L22.37 2.42C23.36 2.42 24.16 3.22 24.16 4.21ZM3.52 26.86C2.75 26.66 2.15 25.99 2.15 25.16L2.15 18.33C2.15 17.35 2.96 16.54 3.94 16.54L11.15 16.54C12.14 16.54 12.94 17.35 12.94 18.33L12.94 25.16C12.94 25.99 12.35 26.66 11.58 26.86L3.52 26.86ZM23.72 0.28L2.71 0.28C1.22 0.28 0 1.49 0 2.99L0 26.29C0 27.79 1.22 29 2.71 29L23.72 29C25.21 29 26.43 27.79 26.43 26.29L26.43 2.99C26.43 1.49 25.21 0.28 23.72 0.28ZM6.28 14.01C6.55 14.01 6.77 13.79 6.77 13.52L6.77 3.81C6.77 3.53 6.55 3.31 6.28 3.31C6.01 3.31 5.79 3.53 5.79 3.81L5.79 13.52C5.79 13.79 6.01 14.01 6.28 14.01ZM10.86 14.01C11.14 14.01 11.35 13.79 11.35 13.52L11.35 3.81C11.35 3.53 11.14 3.31 10.86 3.31C10.59 3.31 10.37 3.53 10.37 3.81L10.37 13.52C10.37 13.79 10.59 14.01 10.86 14.01ZM15.45 14.01C15.72 14.01 15.94 13.79 15.94 13.52L15.94 3.81C15.94 3.53 15.72 3.31 15.45 3.31C15.18 3.31 14.96 3.53 14.96 3.81L14.96 13.52C14.96 13.79 15.18 14.01 15.45 14.01ZM20.03 14.01C20.3 14.01 20.52 13.79 20.52 13.52L20.52 3.81C20.52 3.53 20.3 3.31 20.03 3.31C19.76 3.31 19.54 3.53 19.54 3.81L19.54 13.52C19.54 13.79 19.76 14.01 20.03 14.01Z" />
	    </g>
    </symbol>
    <symbol id="navl_7" viewBox="0 0 27 33">
        <g>
		    <path id="Path 1" class="shp0" d="M20.89 14.94C20.89 15.78 20.21 16.46 19.38 16.46C18.54 16.46 17.86 15.78 17.86 14.94C17.86 14.11 18.54 13.43 19.38 13.43C20.22 13.43 20.89 14.11 20.89 14.94ZM22.74 2.83L22.74 11.46L16.82 11.46C16.33 11.46 15.94 11.85 15.94 12.33L15.94 17.56C15.94 18.04 16.33 18.43 16.82 18.43L22.74 18.43L22.74 27.06C22.74 27.37 22.49 27.63 22.18 27.63L2.71 27.63C2.4 27.63 2.14 27.37 2.14 27.06L2.14 2.83C2.14 2.52 2.4 2.26 2.71 2.26L22.18 2.26C22.49 2.26 22.74 2.52 22.74 2.83ZM26.37 11.53C26.25 11.48 26.12 11.46 25.99 11.46L24.89 11.46L24.89 2.83C24.89 1.33 23.67 0.12 22.18 0.12L2.71 0.12C1.22 0.12 0 1.33 0 2.83L0 27.06C0 28.56 1.22 29.77 2.71 29.77L4.77 29.77L4.77 33L7.62 31.46L7.62 29.77L22.18 29.77C23.67 29.77 24.89 28.56 24.89 27.06L24.89 18.43L25.99 18.43C26.12 18.43 26.26 18.4 26.37 18.35C26.67 18.21 26.89 17.91 26.89 17.55L26.89 12.33C26.89 11.97 26.67 11.67 26.37 11.53ZM7.67 11.86C9.76 11.86 11.45 10.18 11.45 8.09C11.45 6.01 9.76 4.32 7.67 4.32C5.59 4.32 3.9 6.01 3.9 8.09C3.9 10.18 5.59 11.86 7.67 11.86Z" />
	    </g>
    </symbol>
    <symbol id="navl_8" viewBox="0 0 39 27">
        <g>
		    <path id="Path 1" class="shp0" d="M19.32 -0.08L24.02 10.25C24.1 10.43 24.28 10.55 24.48 10.57L38.27 11.68C38.69 11.71 38.98 11.28 38.81 10.9L35.21 3.02C35.14 2.85 34.99 2.74 34.81 2.71L19.32 -0.08ZM3.73 3.01L0.05 10.88C-0.13 11.26 0.18 11.7 0.6 11.65L14.42 10.26C14.62 10.24 14.79 10.12 14.87 9.94L19.32 -0.08L4.13 2.71C3.96 2.74 3.81 2.85 3.73 3.01ZM19.37 8.26L19.37 24.27L32.12 21.85L32.12 14.05C32.12 13.72 32.4 13.47 32.73 13.5L34.3 13.75C34.57 13.78 34.78 14.01 34.78 14.29L34.78 23.35C34.78 23.61 34.6 23.84 34.35 23.89L20.39 26.89C19.72 27.04 19.02 27.04 18.35 26.89L4.54 23.99C4.29 23.94 4.11 23.72 4.1 23.47L3.87 14.26C3.86 13.98 4.08 13.73 4.36 13.7L16.09 12.68C16.3 12.66 16.47 12.53 16.55 12.34L18.32 8.05C18.55 7.49 19.37 7.66 19.37 8.26Z" />
	    </g>
    </symbol>
    <symbol id="navl_9" viewBox="0 0 29 30">
        <g>
		    <path id="Path 1" class="shp0" d="M3.82 2.49L7.7 2.49L5.81 5.33L5.76 5.26L5.71 5.33L3.82 2.49ZM2.71 2.49L3.22 2.49L2.14 4.1L2.14 3.06C2.14 2.75 2.4 2.49 2.71 2.49ZM2.14 25.19L5.66 25.19L3.89 27.86L2.71 27.86C2.4 27.86 2.14 27.6 2.14 27.29L2.14 25.19ZM22.74 3.06L22.74 7.25L20.33 9.92L18.63 8.45C18.07 7.97 17.22 8.02 16.72 8.57L16.43 8.9C16.18 9.17 16.06 9.52 16.08 9.89C16.09 10.25 16.25 10.59 16.52 10.83L19.66 13.7C19.93 13.95 20.29 14.08 20.66 14.06C21.03 14.04 21.38 13.87 21.62 13.59L22.74 12.29L22.74 27.29C22.74 27.6 22.49 27.86 22.18 27.86L7.63 27.86L5.86 25.19L10.25 25.19L8.01 21.82L5.81 25.12L5.76 25.04L5.71 25.12L3.52 21.82L2.14 23.89L2.14 18.6L5.66 18.6L3.52 21.82L8.01 21.82L5.86 18.6L10.25 18.6L8.01 15.22L5.81 18.52L5.76 18.45L5.71 18.52L3.52 15.22L2.14 17.29L2.14 12L5.66 12L3.52 15.22L8.01 15.22L5.86 12L10.25 12L8.01 8.63L5.81 11.93L5.76 11.85L5.71 11.93L3.52 8.63L2.14 10.7L2.14 5.41L5.66 5.41L3.52 8.63L8.01 8.63L5.86 5.41L10.25 5.41L8.31 2.49L22.18 2.49C22.49 2.49 22.74 2.75 22.74 3.06ZM28.71 4.75C28.68 4.39 28.51 4.05 28.24 3.82L27.9 3.52C27.33 3.04 26.49 3.1 25.99 3.65L24.89 4.87L24.89 3.06C24.89 1.56 23.67 0.35 22.18 0.35L2.71 0.35C1.22 0.35 0 1.56 0 3.06L0 27.29C0 28.79 1.22 30 2.71 30L22.18 30C23.67 30 24.89 28.79 24.89 27.29L24.89 9.8L28.38 5.74C28.62 5.46 28.73 5.11 28.71 4.75Z" />
	    </g>
    </symbol>
    <symbol id="pdf" viewBox="0 0 1357 1667">
        <g>
		    <path d="M933.64 1103.84L933.64 1159.14L825.68 1159.14L825.68 1280.03L757.44 1280.03L757.44 979.41L941.21 979.41L941.21 1035.14L825.68 1035.14L825.68 1103.84L933.64 1103.84ZM446.82 1278.67L446.82 983.38C471.8 979.41 504.35 977.17 538.71 977.17C595.8 977.17 632.82 987.42 661.83 1009.26C693.05 1032.47 712.66 1069.46 712.66 1122.58C712.66 1180.11 691.71 1219.83 662.7 1244.34C631.04 1270.65 582.86 1283.13 523.99 1283.13C488.74 1283.13 463.77 1280.9 446.82 1278.67ZM1179.56 1558.37L266.19 1558.37C228.33 1558.37 197.49 1527.53 197.49 1489.61L197.49 1410.12L1048.94 1410.12C1088.42 1410.12 1120.42 1378.15 1120.42 1338.65L1120.42 905.15C1120.42 865.64 1088.42 833.67 1048.94 833.67L197.49 833.67L197.49 177.72C197.49 139.91 228.33 109.08 266.19 109.08L894.95 108.42L894.95 340.83C894.95 408.72 950.03 463.85 1017.97 463.85L1245.64 463.2L1248.2 1489.61C1248.2 1527.53 1217.42 1558.37 1179.56 1558.37ZM187.52 983.38C208.47 979.84 237.92 977.17 279.4 977.17C321.32 977.17 351.2 985.18 371.28 1001.25C390.46 1016.4 403.4 1041.4 403.4 1070.82C403.4 1100.24 393.6 1125.25 375.75 1142.19C352.54 1164.04 318.22 1173.85 278.07 1173.85C269.13 1173.85 261.12 1173.41 254.86 1172.54L254.86 1280.03L187.52 1280.03L187.52 983.38ZM935.59 0.34L266.19 0.34C168.4 0.34 88.8 79.98 88.8 177.72L88.8 833.67L71.48 833.67C32.01 833.67 0 865.64 0 905.15L0 1338.65C0 1378.15 32.01 1410.12 71.48 1410.12L88.8 1410.12L88.8 1489.61C88.8 1587.46 168.4 1667 266.19 1667L1179.56 1667C1277.29 1667 1356.89 1587.46 1356.89 1489.61L1356.89 420.16L935.59 0.34Z" />
	    </g>
    </symbol>
    <symbol id="slider_arrow" viewBox="0 0 42.736 27.435">
        <path d="M22.563,26.938c-0.663,0.663-1.724,0.663-2.387,0L0.498,7.286c-0.663-0.663-0.663-1.75,0-2.413L4.9,0.497
		c0.663-0.663,1.724-0.663,2.387,0l14.082,14.082L35.45,0.497c0.663-0.663,1.725-0.663,2.388,0l4.401,4.376
		c0.663,0.663,0.663,1.75,0,2.413L22.563,26.938z"/>
    </symbol>
</svg>